<?xml version="1.0" encoding="utf-8"?>
<!-- Generator: Adobe Illustrator 24.3.0, SVG Export Plug-In . SVG Version: 6.00 Build 0)  -->
<svg version="1.1"
	 id="layer" xmlns:cc="http://creativecommons.org/ns#" xmlns:dc="http://purl.org/dc/elements/1.1/" xmlns:inkscape="http://www.inkscape.org/namespaces/inkscape" xmlns:rdf="http://www.w3.org/1999/02/22-rdf-syntax-ns#" xmlns:sodipodi="http://sodipodi.sourceforge.net/DTD/sodipodi-0.dtd" xmlns:svg="http://www.w3.org/2000/svg"
	 xmlns="http://www.w3.org/2000/svg" xmlns:xlink="http://www.w3.org/1999/xlink" x="0px" y="0px" viewBox="0 0 1578.3 313"
	 style="enable-background:new 0 0 1578.3 313;" xml:space="preserve">
<style type="text/css">
	.st0{fill:#333333;}
	.st1{fill-rule:evenodd;clip-rule:evenodd;fill:url(#path16-4_1_);}
	.st2{font-family:'LucidaFax-Italic';}
	.st3{font-size:124.766px;}
</style>
<sodipodi:namedview  bordercolor="#666666" borderopacity="1" fit-margin-bottom="0" fit-margin-left="0" fit-margin-right="0" fit-margin-top="0" gridtolerance="10" guidetolerance="10" id="namedview24" inkscape:current-layer="layer" inkscape:cx="774.49059" inkscape:cy="335.57644" inkscape:document-rotation="0" inkscape:guide-bbox="true" inkscape:pageopacity="0" inkscape:pageshadow="2" inkscape:window-height="1002" inkscape:window-maximized="1" inkscape:window-width="1920" inkscape:window-x="-8" inkscape:window-y="-8" inkscape:zoom="0.71667151" objecttolerance="10" pagecolor="#ffffff" showgrid="false" showguides="true">
	<sodipodi:guide  id="guide46" orientation="0,-1" position="500.92684,70.168985"></sodipodi:guide>
</sodipodi:namedview>
<path id="path2" class="st0" d="M113.4,235.1c-11.9,4.9-23.5,7.7-34,7.7c-19.3,0-35.4-5.6-48-17.2c-13-11.9-19.6-27.3-19.6-46.2
	c0-18.2,6.3-33.6,19.3-45.9c13-12.3,29.1-18.6,48.3-18.6c10.9,0,22.4,2.5,34,7.7v32.6c-12.3-7.4-23.1-10.9-31.9-10.9
	c-24.2,0-36.1,11.6-36.1,35c0,22.8,11.9,34,36.1,34c11.2,0,21.7-3.9,31.9-11.6L113.4,235.1z"/>
<path id="path4" class="st0" d="M255.6,224.3l-31.2,14v-17.9c-7.7,15.1-20.7,22.4-38.5,22.4c-18.2,0-32.2-6.3-42.4-18.9
	c-9.1-11.6-14-26.6-14-45.2c0-17.9,5.6-32.9,16.5-45.5c10.9-12.3,24.2-18.6,39.9-18.6c17.5,0,30.5,6.7,38.2,20.3v-15.8h31.2v105h0.3
	V224.3z M224.4,175.6c0-9.5-2.5-17.2-7.4-23.1c-5.3-6.3-12.6-9.5-22.4-9.5c-9.1,0-16.5,3.2-22.4,9.5c-6,6.7-8.8,15.4-8.8,26.3
	c0,10.9,2.8,19.3,8.1,25.9c5.3,6.3,12.6,9.5,21.4,9.5c10.9,0,18.6-2.8,23.5-8.8C221.9,199.4,224.4,189.6,224.4,175.6L224.4,175.6z"
	/>
<path id="path6" class="st0" d="M317.9,238.3h-31.5V50.7l31.5-37.5V238.3z"/>
<path id="path8" class="st0" d="M469.5,223.2l-31.2,15.1v-17.9c-7.7,15.1-20.7,22.4-38.5,22.4c-18.2,0-32.2-6.3-42.4-18.9
	c-9.1-11.6-14-26.6-14-45.2c0-17.9,5.6-32.9,16.5-45.5c10.9-12.3,24.2-18.6,39.9-18.6c17.5,0,30.5,6.7,38.2,20.3v-15.8h31.2v104h0.3
	V223.2z M438.4,175.6c0-9.5-2.5-17.2-7.4-23.1c-5.3-6.3-12.6-9.5-22.4-9.5c-9.1,0-16.5,3.2-22.4,9.5c-6,6.7-8.8,15.4-8.8,26.3
	c0,10.9,2.8,19.3,8.1,25.9c5.3,6.3,12.6,9.5,21.4,9.5c10.9,0,18.6-2.8,23.5-8.8C435.6,199.4,438.4,189.6,438.4,175.6L438.4,175.6z"
	/>
<path id="path10" class="st0" d="M618.7,238.3h-30.8v-17.9c-7.7,15.1-20.7,22.4-38.5,22.4c-18.2,0-32.2-6.3-42.4-18.9
	c-9.5-11.6-14-26.6-14-45.2c0-17.9,5.6-32.9,16.5-45.5c10.9-12.3,24.5-18.6,40.3-18.6c17.5,0,30.5,6.7,38.2,20.3
	c0-1.8,0-4.2-0.3-7.4c-0.4-3.2-0.4-6-0.4-8.4v-69l31.5-37.5v225.7L618.7,238.3z M587.9,175.6c0-9.5-2.5-17.2-7.4-23.1
	c-5.3-6.3-13-9.5-22.4-9.5c-9.1,0-16.8,3.2-22.4,9.5c-6,6.7-9.1,15.4-9.1,26.3c0,10.9,2.8,19.3,8.1,25.9c5.6,6.3,12.6,9.5,21.4,9.5
	c10.9,0,18.6-2.8,23.8-8.8C585.1,199.4,587.9,189.6,587.9,175.6L587.9,175.6z"/>
<path id="path12" class="st0" d="M767.8,229.2l-31.2,9.5v-17.9c-7.7,15.1-20.7,22.4-38.5,22.4c-18.2,0-32.2-6.3-42.4-18.9
	c-9.1-11.6-14-26.6-14-45.2c0-17.9,5.6-32.9,16.5-45.5c10.9-12.3,24.2-18.6,39.9-18.6c17.5,0,30.5,6.7,38.2,20.3v-15.8h31.2v109.7
	H767.8z M736.6,175.6c0-9.5-2.5-17.2-7.4-23.1c-5.3-6.3-12.6-9.5-22.4-9.5c-9.1,0-16.5,3.2-22.4,9.5c-6,6.7-8.8,15.4-8.8,26.3
	c0,10.9,2.8,19.3,8.1,25.9c5.3,6.3,12.6,9.5,21.4,9.5c10.9,0,18.6-2.8,23.5-8.8C734.2,199.4,736.6,189.6,736.6,175.6L736.6,175.6z"
	/>
<path id="path14" class="st0" d="M923.9,178.8c0,19.6-5.6,35.4-16.5,47.3c-10.5,11.2-23.8,16.8-40.3,16.8
	c-17.5,0-30.5-6.7-38.2-19.6c0,1.4,0,3.9,0.3,7s0.3,6,0.3,8.1V313H798V119.3h30.8v17.2c7.7-14.4,20.3-21.7,38.2-21.7
	c18.2,0,32.6,6.3,42.7,18.6C919.4,145.2,923.9,160.2,923.9,178.8L923.9,178.8z M890.3,178.8c0-24.5-9.8-36.4-29.8-36.4
	c-21,0-31.5,13.3-31.5,39.9c0,9.5,2.5,17.2,7.7,22.8c5.3,6,12.6,9.1,22.1,9.1C879.8,214.1,890.3,202.6,890.3,178.8L890.3,178.8z"/>
<path id="path16" class="st0" d="M1003.4,146.9H981v78.8l-31.2,13v-91.4h-15.1V120h15.1V69.2H981v50.4h22.4V146.9z"/>
<linearGradient id="path16-4_1_" gradientUnits="userSpaceOnUse" x1="77.3005" y1="775.8132" x2="393.4001" y2="459.7136" gradientTransform="matrix(0.592 0 0 -0.6041 1005.0797 583.2465)">
	<stop  offset="0" style="stop-color:#276DC3"/>
	<stop  offset="1" style="stop-color:#165CAA"/>
</linearGradient>
<path id="path16-4" class="st1" d="M1112.6,183.7c0-34.4-9.8-52-29.4-53c-7.8-0.4-15.4,0.9-22.8,3.7c-5.9,2.1-9.9,4.2-12,6.3v82
	c12.5,7.9,23.7,11.5,33.4,11C1102.3,232.4,1112.6,215.7,1112.6,183.7L1112.6,183.7z M1136.8,185.1c0,17.5-4.1,32-12.3,43.5
	c-9.2,13-21.9,19.8-38.2,20.1c-12.3,0.4-24.9-3.5-37.9-11.5v74.6l-21-7.5V138.8c3.5-4.2,7.9-7.9,13.3-11c12.5-7.3,27.7-11,45.6-11.2
	l0.3,0.3c16.4-0.2,29,6.5,37.8,20.1C1132.6,149.5,1136.8,165.5,1136.8,185.1L1136.8,185.1z M1265.3,234c0,23.4-2.3,39.6-7,48.7
	c-4.7,9-13.7,16.2-26.9,21.6c-10.7,4.2-22.4,6.5-34.8,6.9l-3.5-13.3c12.7-1.7,21.6-3.5,26.8-5.2c10.2-3.5,17.2-8.7,21-15.8
	c3.1-5.8,4.6-16.8,4.6-33.1v-5.5c-14.4,6.5-29.4,9.8-45.2,9.8c-10.4,0-19.5-3.2-27.4-9.8c-8.8-7.1-13.3-16.1-13.3-27.1v-87.5l21-7.2
	v88.1c0,9.4,3,16.7,9.1,21.7c6.1,5.1,13.9,7.5,23.6,7.3c9.6-0.2,20-3.9,30.9-11.2V119.8h21L1265.3,234z"/>
<text transform="matrix(1 0 0 1 1283.7727 238.2858)" class="st0 st2 st3">beta</text>
</svg>
